# xmcd
#
# Track frame offsets:
#	150
#	26901
#	80808
#	101227
#	124749
#	147616
#	190271
#	223499
#	236118
#
# Disc length: 3738 seconds
#
# Revision: 0
# Processed by: cddbd v1.5.1PL2 Copyright (c) Steve Scherf et al.
# Submitted via: dBpowerAMP V4.0
#
DISCID=950e9809
DTITLE=Manu Hartmann and Band - BluesNight Gossau 2005 - Live
DYEAR=2005
DGENRE=Blues
TTITLE0=Every Day I Have The Blues
TTITLE1=Stormy Monday Blues (with Live-Intro)
TTITLE2=Spoonfull
TTITLE3=What You Wan't Me To Do
TTITLE4=Who's Been Talking
TTITLE5=Innercity Blues
TTITLE6=Hit The Road Jack
TTITLE7=Mercedes Benz
TTITLE8=The Thrill Is Gone
EXTD=submitted by The bflat-management
EXTT0=
EXTT1=
EXTT2=
EXTT3=
EXTT4=
EXTT5=
EXTT6=
EXTT7=
EXTT8=
PLAYORDER=
